<?xml version="1.0" encoding="UTF-8" standalone="no"?>
<!-- Created with Inkscape (http://www.inkscape.org/) -->

<svg
   xmlns:dc="http://purl.org/dc/elements/1.1/"
   xmlns:cc="http://creativecommons.org/ns#"
   xmlns:rdf="http://www.w3.org/1999/02/22-rdf-syntax-ns#"
   xmlns:svg="http://www.w3.org/2000/svg"
   xmlns="http://www.w3.org/2000/svg"
   xmlns:sodipodi="http://sodipodi.sourceforge.net/DTD/sodipodi-0.dtd"
   xmlns:inkscape="http://www.inkscape.org/namespaces/inkscape"
   width="3047.2441"
   height="2161.4172"
   id="svg2"
   version="1.1"
   inkscape:version="0.48.5 r10040"
   sodipodi:docname="drum.pdf">
  <defs
     id="defs4" />
  <sodipodi:namedview
     id="base"
     pagecolor="#ffffff"
     bordercolor="#666666"
     borderopacity="1.0"
     inkscape:pageopacity="0.0"
     inkscape:pageshadow="2"
     inkscape:zoom="0.52025152"
     inkscape:cx="244.587"
     inkscape:cy="1474.8169"
     inkscape:document-units="mm"
     inkscape:current-layer="layer1"
     showgrid="false"
     units="mm"
     inkscape:object-nodes="false"
     inkscape:snap-object-midpoints="false"
     inkscape:window-width="1215"
     inkscape:window-height="752"
     inkscape:window-x="37"
     inkscape:window-y="0"
     inkscape:window-maximized="0"
     inkscape:snap-nodes="true"
     inkscape:snap-center="false" />
  <metadata
     id="metadata7">
    <rdf:RDF>
      <cc:Work
         rdf:about="">
        <dc:format>image/svg+xml</dc:format>
        <dc:type
           rdf:resource="http://purl.org/dc/dcmitype/StillImage" />
        <dc:title></dc:title>
      </cc:Work>
    </rdf:RDF>
  </metadata>
  <g
     inkscape:label="Layer 1"
     inkscape:groupmode="layer"
     id="layer1"
     transform="translate(0,1109.0551)">
    <rect
       style="fill:none;fill-opacity:1;stroke:none"
       id="rect3765"
       width="1040"
       height="782.85712"
       x="394.28571"
       y="367.13153"
       transform="translate(0,-1109.0551)" />
    <rect
       style="fill:none;stroke:none"
       id="rect3767"
       width="22.857143"
       height="51.42857"
       x="1828.5714"
       y="1384.2744"
       transform="translate(0,-1109.0551)" />
    <rect
       style="fill:none;stroke:none"
       id="rect3769"
       width="417.14285"
       height="554.28571"
       x="600"
       y="515.70294"
       transform="translate(0,-1109.0551)" />
    <path
       style="fill:none;stroke:#000000;stroke-width:0.08858268;stroke-miterlimit:4;stroke-opacity:1;stroke-dasharray:none"
       d="m 105.94724,-759.17561 0,290.8125 485.8125,0 0,-74.625 -148.09375,0 0,-141.5625 148.09375,0 0,-74.625 -485.8125,0 z m 53.9375,77.5 30.28125,0 0,14.75 -30.28125,0 0,-14.75 z m 70.90625,0 30.28125,0 0,14.75 -30.28125,0 0,-14.75 z m 120.125,22.9375 c 24.84693,0 45,20.12454 45,44.96875 0,24.84421 -20.15307,45 -45,45 -24.84693,0 -45,-20.15579 -45,-45 0,-24.84421 20.15307,-44.96875 45,-44.96875 z m -191.03125,98.125 30.28125,0 0,14.78125 -30.28125,0 0,-14.78125 z m 70.90625,0 30.28125,0 0,14.78125 -30.28125,0 0,-14.78125 z"
       id="rect3771"
       inkscape:connector-curvature="0" />
    <path
       style="fill:none;stroke:#000000;stroke-width:0.08858268;stroke-miterlimit:4;stroke-opacity:1;stroke-dasharray:none"
       d="m 618.09516,-751.67683 0,0.5625 -27.40625,85.84375 33.78125,0 0,14.0625 -38.28125,0 -24.4375,76.5625 56.34375,0 0,14.75 30.28125,0 0,-14.75 40.59375,0 0,14.75 30.28125,0 0,-14.75 56.34375,0 -56.34375,-176.46875 0,-0.5625 -101.15625,0 z m 50.59375,17.03125 c 5.8364,0 10.5624,4.72622 10.5625,10.5625 0,5.83628 -4.7261,10.59375 -10.5625,10.59375 -5.8363,0 -10.5625,-4.75747 -10.5625,-10.59375 0,-5.83628 4.7262,-10.5625 10.5625,-10.5625 z"
       id="path3827"
       inkscape:connector-curvature="0" />
    <path
       style="fill:none;stroke:#000000;stroke-width:0.08858268;stroke-linejoin:round;stroke-miterlimit:4;stroke-opacity:1;stroke-dasharray:none"
       d="M 114.09375 660.15625 L 114.09375 722.0625 L 206.5625 722.0625 L 206.5625 730.65625 L 213.4375 730.65625 L 213.4375 739.25 L 206.5625 739.25 L 206.5625 748.03125 L 233.8125 748.03125 L 233.8125 739.25 L 226.90625 739.25 L 226.90625 730.65625 L 233.8125 730.65625 L 233.8125 722.0625 L 326.25 722.0625 L 326.25 660.15625 L 288.09375 660.15625 L 288.09375 688.71875 L 273.34375 688.71875 L 273.34375 660.15625 L 167.0625 660.15625 L 167.0625 688.71875 L 152.28125 688.71875 L 152.28125 660.15625 L 114.09375 660.15625 z "
       transform="translate(0,-1109.0551)"
       id="rect3831" />
    <path
       sodipodi:type="arc"
       style="fill:none;stroke:#000000;stroke-width:0.1253259;stroke-linejoin:round;stroke-miterlimit:4;stroke-opacity:1;stroke-dasharray:none"
       id="path3881"
       sodipodi:cx="289.50177"
       sodipodi:cy="878.36707"
       sodipodi:rx="14.950796"
       sodipodi:ry="14.950796"
       d="m 304.45257,878.36707 a 14.950796,14.950796 0 1 1 -29.9016,0 14.950796,14.950796 0 1 1 29.9016,0 z"
       transform="matrix(0.70681996,0,0,0.70681721,88.280348,-952.2495)" />
    <path
       style="fill:none;stroke:#000000;stroke-width:0.08858268;stroke-linejoin:round;stroke-miterlimit:4;stroke-opacity:1;stroke-dasharray:none"
       d="M 292.90625 751.125 C 281.60369 751.125 271.91588 757.68954 267.6875 767.09375 L 182.65625 767.09375 L 182.65625 774.59375 L 176.21875 774.59375 L 176.21875 767.09375 L 128.40625 767.09375 L 128.40625 788.21875 L 267.71875 788.21875 C 271.95494 797.60546 281.61683 804.1875 292.90625 804.1875 C 304.20881 804.1875 313.89632 797.62329 318.125 788.21875 L 364.25 788.21875 L 364.25 794.5625 L 420.03125 794.5625 L 420.03125 788.21875 L 940.375 788.21875 L 940.375 767.09375 L 420.375 767.09375 L 420.375 760.0625 L 364.59375 760.0625 L 364.59375 767.09375 L 318.09375 767.09375 C 313.85726 757.70671 304.19567 751.125 292.90625 751.125 z M 369.6875 772.34375 L 415.9375 772.34375 L 415.9375 782.96875 L 369.6875 782.96875 L 369.6875 772.34375 z "
       transform="translate(0,-1109.0551)"
       id="rect3884" />
    <path
       sodipodi:type="arc"
       style="fill:none;stroke:#000000;stroke-width:0.08858268;stroke-linejoin:round;stroke-miterlimit:4;stroke-opacity:1;stroke-dasharray:none"
       id="path3969"
       sodipodi:cx="93.782265"
       sodipodi:cy="349.65256"
       sodipodi:rx="4.0774899"
       sodipodi:ry="4.0774899"
       d="m 97.859755,349.65256 a 4.0774899,4.0774899 0 1 1 -8.15498,0 4.0774899,4.0774899 0 1 1 8.15498,0 z"
       transform="matrix(0.24509749,0,0,0.33309288,78.725324,-876.46999)" />
    <path
       inkscape:connector-curvature="0"
       id="path4044"
       d="m 623.8616,-542.16279 0,0.5625 -27.40625,85.84375 33.78125,0 0,14.0625 -38.28125,0 -24.4375,76.5625 56.34375,0 0,14.75 30.28125,0 0,-14.75 40.59375,0 0,14.75 30.28125,0 0,-14.75 56.34375,0 -56.34375,-176.46875 0,-0.5625 -101.15625,0 z m 50.59375,17.03125 c 5.8364,0 10.5624,4.72622 10.5625,10.5625 0,5.83628 -4.7261,10.59375 -10.5625,10.59375 -5.8363,0 -10.5625,-4.75747 -10.5625,-10.59375 0,-5.83628 4.7262,-10.5625 10.5625,-10.5625 z"
       style="fill:none;stroke:#000000;stroke-width:0.08858268;stroke-miterlimit:4;stroke-opacity:1;stroke-dasharray:none" />
  </g>
</svg>
